<svg width="29" height="16" viewBox="0 0 29 16" fill="none" xmlns="http://www.w3.org/2000/svg">
<path fill-rule="evenodd" clip-rule="evenodd" d="M0 5C0 2.23858 2.23858 0 5 0H24C26.7614 0 29 2.23858 29 5V11C29 13.7614 26.7614 16 24 16H5C2.23858 16 0 13.7614 0 11V5Z" fill="#FFA116"/>
<path fill-rule="evenodd" clip-rule="evenodd" d="M6.64014 11.3335C6.79964 11.3335 6.93799 11.2749 7.05518 11.1577C7.17236 11.047 7.23096 10.9087 7.23096 10.7427V8.89209H8.62744C9.34359 8.89209 9.95394 8.63818 10.4585 8.13037C10.9663 7.62256 11.2202 7.01221 11.2202 6.29932C11.2202 5.58317 10.9663 4.97119 10.4585 4.46338C9.95394 3.95882 9.34359 3.70654 8.62744 3.70654C7.91455 3.70654 7.3042 3.95882 6.79639 4.46338C6.28857 4.97119 6.03467 5.58317 6.03467 6.29932V10.7427C6.03467 10.9087 6.09326 11.047 6.21045 11.1577C6.32764 11.2749 6.46598 11.3335 6.62549 11.3335H6.64014ZM8.62744 7.6958H7.23096V6.29932C7.23096 5.91195 7.36605 5.58154 7.63623 5.30811C7.90967 5.03467 8.24007 4.89795 8.62744 4.89795C9.01481 4.89795 9.34521 5.03467 9.61865 5.30811C9.88883 5.58154 10.0239 5.91195 10.0239 6.29932C10.0239 6.68669 9.88883 7.01546 9.61865 7.28564C9.34521 7.55908 9.01481 7.6958 8.62744 7.6958ZM13.2661 11.1577C13.1489 11.2749 13.0106 11.3335 12.8511 11.3335H12.8364C12.6769 11.3335 12.5386 11.2749 12.4214 11.1577C12.3042 11.047 12.2456 10.9087 12.2456 10.7427V4.29736C12.2456 4.1346 12.3042 3.99463 12.4214 3.87744C12.5386 3.76351 12.6769 3.70654 12.8364 3.70654H12.8511C13.0106 3.70654 13.1489 3.76351 13.2661 3.87744C13.3833 3.99463 13.4419 4.1346 13.4419 4.29736V10.7427C13.4419 10.9087 13.3833 11.047 13.2661 11.1577ZM16.9771 11.3335C17.6248 11.3335 18.1799 11.1024 18.6421 10.6401C19.1043 10.1779 19.3354 9.62288 19.3354 8.9751V6.3042C19.3354 6.14144 19.2769 6.00146 19.1597 5.88428C19.049 5.76709 18.9106 5.7085 18.7446 5.7085H18.7349C18.5721 5.7085 18.4321 5.76709 18.3149 5.88428C18.1978 6.00146 18.1392 6.14144 18.1392 6.3042V8.9751C18.1392 9.29736 18.0269 9.57243 17.8022 9.80029C17.5744 10.0249 17.2993 10.1372 16.9771 10.1372C16.6515 10.1372 16.3748 10.0249 16.147 9.80029C15.9224 9.57243 15.8101 9.29736 15.8101 8.9751V6.3042C15.8101 6.14144 15.7515 6.00146 15.6343 5.88428C15.5171 5.76709 15.3787 5.7085 15.2192 5.7085H15.2046C15.0451 5.7085 14.9067 5.76709 14.7896 5.88428C14.6724 6.00146 14.6138 6.14144 14.6138 6.3042V8.9751C14.6138 9.62288 14.8449 10.1779 15.3071 10.6401C15.7694 11.1024 16.326 11.3335 16.9771 11.3335ZM23.188 10.8354C22.8527 11.1675 22.4507 11.3335 21.9819 11.3335H20.7075C20.548 11.3335 20.4097 11.2749 20.2925 11.1577C20.1753 11.047 20.1167 10.9087 20.1167 10.7427V10.7329C20.1167 10.5701 20.1753 10.4302 20.2925 10.313C20.4097 10.1958 20.548 10.1372 20.7075 10.1372H22.0308C22.174 10.1372 22.2944 10.0884 22.3921 9.99072C22.4897 9.89307 22.5386 9.77262 22.5386 9.62939C22.5386 9.45036 22.4458 9.31527 22.2603 9.22412C22.2114 9.20133 21.938 9.11995 21.4399 8.97998C21.0526 8.86605 20.7645 8.71631 20.5757 8.53076C20.3055 8.26709 20.1704 7.89437 20.1704 7.4126C20.1704 6.94385 20.3364 6.54346 20.6685 6.21143C21.0037 5.87614 21.4058 5.7085 21.8745 5.7085H22.7729C22.9357 5.7085 23.0757 5.76709 23.1929 5.88428C23.3101 6.00146 23.3687 6.14144 23.3687 6.3042V6.31396C23.3687 6.47998 23.3101 6.61833 23.1929 6.729C23.0757 6.84619 22.9357 6.90479 22.7729 6.90479H21.8257C21.6825 6.90479 21.562 6.95361 21.4644 7.05127C21.3667 7.15218 21.3179 7.27262 21.3179 7.4126C21.3179 7.60791 21.4123 7.75439 21.6011 7.85205C21.6662 7.88786 21.938 7.96924 22.4165 8.09619C22.8039 8.20687 23.092 8.35173 23.2808 8.53076C23.5509 8.78792 23.686 9.15413 23.686 9.62939C23.686 10.0981 23.52 10.5002 23.188 10.8354Z" fill="white"/>
</svg>
